<svg width="219" height="219" xmlns="http://www.w3.org/2000/svg" xmlns:xlink="http://www.w3.org/1999/xlink" xml:space="preserve" overflow="hidden"><g transform="translate(-233 -141)"><path d="M425.766 257.344C420.747 257.344 416.413 258.712 412.763 260.538 391.091 271.944 367.594 279.472 343.413 279.928 341.131 279.928 339.078 279.928 336.797 279.928 300.981 280.156 268.131 273.084 242.125 261.222 242.125 269.663 247.372 277.419 255.356 280.384 257.638 281.297 260.147 281.981 262.428 282.894L260.375 294.756C259.462 299.775 262.884 304.337 267.903 305.25 268.359 305.25 268.816 305.478 269.5 305.478 273.834 305.478 277.712 302.284 278.397 297.95L279.994 287.913C297.559 292.019 316.494 294.3 336.569 294.3 348.203 294.3 359.381 293.616 370.103 292.247 371.244 292.019 372.156 292.019 373.297 291.791L374.438 298.178C375.122 302.741 379 305.706 383.334 305.706 383.791 305.706 384.247 305.706 384.931 305.478 389.95 304.566 393.372 300.003 392.459 294.984L391.547 290.194C402.953 289.281 414.359 289.281 425.538 289.281 425.538 289.281 425.538 289.281 425.766 289.281 435.119 289.281 442.875 282.209 442.875 273.312 442.875 264.416 435.119 257.344 425.766 257.344Z"/><path d="M343.184 271.031C360.522 270.575 378.316 266.469 396.566 258.484 391.319 222.897 360.978 195.75 324.25 195.75 288.434 195.75 258.55 221.528 252.391 255.747 276.8 265.784 306.456 271.031 336.797 271.031 338.85 271.031 341.131 271.031 343.184 271.031Z"/></g></svg>