<svg width="224" height="225" xmlns="http://www.w3.org/2000/svg" xmlns:xlink="http://www.w3.org/1999/xlink" xml:space="preserve" overflow="hidden"><g transform="translate(-264 -240)"><path d="M165.667 102.667C156.567 102.667 149.333 95.4333 149.333 86.3333 149.333 77.2333 156.567 70 165.667 70 174.767 70 182 77.2333 182 86.3333 182 95.4333 174.767 102.667 165.667 102.667ZM191.333 86.3333C191.333 72.1 179.9 60.6667 165.667 60.6667 151.433 60.6667 140 72.1 140 86.3333 140 98 147.933 108.033 158.667 111.067L158.667 165.667C158.667 185.033 143.033 200.667 123.667 200.667 104.3 200.667 88.6667 185.033 88.6667 165.667L88.6667 141.867C112.467 138.367 130.667 118.067 130.667 93.3333 130.667 89.8333 128.8 86.8 126 85.4L126 28C126 21 120.633 15.1667 113.867 14.2333 112.933 11.4333 110.367 9.33333 107.333 9.33333L105 9.33333C99.8667 9.33333 95.6667 13.5333 95.6667 18.6667 95.6667 23.8 99.8667 28 105 28L107.333 28C110.133 28 112.7 26.1333 113.867 23.8 115.5 24.5 116.667 26.1333 116.667 28L116.667 85.4C113.867 87.0333 112 90.0667 112 93.3333 112 110.133 98.4667 123.667 81.6667 123.667 64.8667 123.667 51.3333 110.133 51.3333 93.3333 51.3333 89.8333 49.4667 86.8 46.6667 85.4L46.6667 28C46.6667 26.1333 47.8333 24.5 49.4667 23.8 50.6333 26.3667 52.9667 28 56 28L58.3333 28C63.4667 28 67.6667 23.8 67.6667 18.6667 67.6667 13.5333 63.4667 9.33333 58.3333 9.33333L56 9.33333C52.9667 9.33333 50.4 11.4333 49.4667 14.2333 42.7 15.1667 37.3333 21 37.3333 28L37.3333 85.4C34.5333 87.0333 32.6667 90.0667 32.6667 93.3333 32.6667 118.067 50.8667 138.367 74.6667 141.867L74.6667 165.667C74.6667 192.733 96.6 214.667 123.667 214.667 150.733 214.667 172.667 192.733 172.667 165.667L172.667 111.067C183.4 108.033 191.333 98 191.333 86.3333Z" transform="matrix(1 0 0 1.00446 264 240)"/><path d="M177.333 86.3333C177.333 92.7767 172.11 98 165.667 98 159.223 98 154 92.7767 154 86.3333 154 79.89 159.223 74.6667 165.667 74.6667 172.11 74.6667 177.333 79.89 177.333 86.3333Z" transform="matrix(1 0 0 1.00446 264 240)"/></g></svg>